<?xml version="1.0" encoding="utf-8"?>
<!-- Generator: Adobe Illustrator 26.2.1, SVG Export Plug-In . SVG Version: 6.00 Build 0)  -->
<svg version="1.1" id="Layer_1" xmlns="http://www.w3.org/2000/svg" xmlns:xlink="http://www.w3.org/1999/xlink" x="0px" y="0px"
	 viewBox="0 0 1920 1080" style="enable-background:new 0 0 1920 1080;" xml:space="preserve">
<style type="text/css">
	.st0{fill:#00AEE1;}
</style>
<image style="display:none;overflow:visible;" width="1700" height="595" xlink:href="86B9DE4.png"  transform="matrix(0.6 0 0 0.6 450 361)">
</image>
<path class="st0" d="M1083.3,485l-28.6-60c-8.6-21.1-30.4-24.1-41.5,0l-28.5,60.5c-4.1,10.8-1.1,19.1,7.1,25.1
	c10.7,6.6,22.3,4,28.5-6.1c5.1-8.5,11.9-11.3,21-5.8l13,12.8C1072.2,519.5,1089.9,504.5,1083.3,485z M1055.3,506
	c-18.9-24.7-39.3-39.1-63.4-25.1l12.7-26.8c3.7-10.1,12.2-11.5,24.4-9.7c14.1,2,21.7-4.5,21.7-16.9l27.3,57.9
	C1086.6,497.8,1068.5,517.3,1055.3,506z"/>
</svg>
